%TF.GenerationSoftware,KiCad,Pcbnew,9.0.2*%
%TF.CreationDate,2025-08-22T13:53:24+02:00*%
%TF.ProjectId,PSU to buck,50535520-746f-4206-9275-636b2e6b6963,rev?*%
%TF.SameCoordinates,Original*%
%TF.FileFunction,Legend,Bot*%
%TF.FilePolarity,Positive*%
%FSLAX46Y46*%
G04 Gerber Fmt 4.6, Leading zero omitted, Abs format (unit mm)*
G04 Created by KiCad (PCBNEW 9.0.2) date 2025-08-22 13:53:24*
%MOMM*%
%LPD*%
G01*
G04 APERTURE LIST*
%ADD10C,0.200000*%
G04 APERTURE END LIST*
D10*
X106371952Y-62529234D02*
X104848142Y-62529234D01*
X104848142Y-62529234D02*
X103324332Y-62529234D01*
X103324332Y-62529234D02*
X101800522Y-62529234D01*
X101800522Y-62529234D02*
X100276712Y-62529234D01*
X115514812Y-65749122D02*
X113991002Y-65749122D01*
X113991002Y-65749122D02*
X112467192Y-65749122D01*
X109419572Y-65749122D02*
X107895762Y-65749122D01*
X105991000Y-63463408D02*
X107705285Y-66034836D01*
X99895760Y-63368169D02*
X98181474Y-65939598D01*
X98371951Y-65749122D02*
X96848141Y-65749122D01*
X93800521Y-65749122D02*
X92276711Y-65749122D01*
X92276711Y-65749122D02*
X90752901Y-65749122D01*
X116086241Y-69445200D02*
X116086241Y-66588057D01*
X112276716Y-66588057D02*
X110562430Y-69159486D01*
X108848145Y-66683296D02*
X110562430Y-69254724D01*
X96657665Y-66588057D02*
X94943379Y-69159486D01*
X93229094Y-66683296D02*
X94943379Y-69254724D01*
X89038617Y-69445200D02*
X89038617Y-66588057D01*
X116086241Y-72665088D02*
X116086241Y-69807945D01*
X113800526Y-69807945D02*
X112086240Y-72379374D01*
X92086235Y-69903184D02*
X93800520Y-72474612D01*
X89419568Y-72665088D02*
X89419568Y-69807945D01*
X115705288Y-73027833D02*
X113991002Y-75599262D01*
X114181479Y-75408786D02*
X112657669Y-75408786D01*
X110752907Y-73123072D02*
X112467192Y-75694500D01*
X109038621Y-75408786D02*
X107514811Y-75408786D01*
X98371951Y-75408786D02*
X96848141Y-75408786D01*
X95514807Y-73027833D02*
X93800521Y-75599262D01*
X93990998Y-75408786D02*
X92467188Y-75408786D01*
X90562426Y-73123072D02*
X92276711Y-75694500D01*
X113038621Y-79104864D02*
X113038621Y-76247721D01*
X108657668Y-76342960D02*
X110371953Y-78914388D01*
X108467192Y-78628674D02*
X106943382Y-78628674D01*
X107133858Y-76247721D02*
X105419572Y-78819150D01*
X97610047Y-76342960D02*
X99324332Y-78914388D01*
X97419571Y-78628674D02*
X95895761Y-78628674D01*
X96086237Y-76247721D02*
X94371951Y-78819150D01*
X92086237Y-79104864D02*
X92086237Y-76247721D01*
X113038621Y-82324752D02*
X113038621Y-79467609D01*
X110752906Y-79467609D02*
X109038620Y-82039038D01*
X109229097Y-81848562D02*
X107705287Y-81848562D01*
X105800525Y-79562848D02*
X107514810Y-82134276D01*
X105800525Y-79467609D02*
X104086239Y-82039038D01*
X104276716Y-81848562D02*
X102752906Y-81848562D01*
X102752906Y-81848562D02*
X101229096Y-81848562D01*
X99324334Y-79562848D02*
X101038619Y-82134276D01*
X99324334Y-79467609D02*
X97610048Y-82039038D01*
X97800525Y-81848562D02*
X96276715Y-81848562D01*
X94371953Y-79562848D02*
X96086238Y-82134276D01*
X91705286Y-82324752D02*
X91705286Y-79467609D01*
X113038621Y-85544640D02*
X113038621Y-82687497D01*
X104657666Y-82687497D02*
X102943380Y-85258926D01*
X101229095Y-82782736D02*
X102943380Y-85354164D01*
X92467188Y-85544640D02*
X92467188Y-82687497D01*
X111514811Y-88764528D02*
X111514811Y-85907385D01*
X109229096Y-85907385D02*
X107514810Y-88478814D01*
X107705287Y-88288338D02*
X106181477Y-88288338D01*
X106181477Y-88288338D02*
X104657667Y-88288338D01*
X102752905Y-86002624D02*
X104467190Y-88574052D01*
X102752905Y-85907385D02*
X101038619Y-88478814D01*
X101229096Y-88288338D02*
X99705286Y-88288338D01*
X99705286Y-88288338D02*
X98181476Y-88288338D01*
X96276714Y-86002624D02*
X97990999Y-88574052D01*
X93610047Y-88764528D02*
X93610047Y-85907385D01*
X111133858Y-89127273D02*
X109419572Y-91698702D01*
X109610049Y-91508226D02*
X108086239Y-91508226D01*
X98943379Y-91508226D02*
X97419569Y-91508226D01*
X95514807Y-89222512D02*
X97229092Y-91793940D01*
X108086238Y-92347161D02*
X106371952Y-94918590D01*
X106562429Y-94728114D02*
X105038619Y-94728114D01*
X105038619Y-94728114D02*
X103514809Y-94728114D01*
X103514809Y-94728114D02*
X101990999Y-94728114D01*
X101990999Y-94728114D02*
X100467189Y-94728114D01*
X98562427Y-92442400D02*
X100276712Y-95013828D01*
M02*
