%TF.GenerationSoftware,KiCad,Pcbnew,9.0.2*%
%TF.CreationDate,2025-08-22T13:53:24+02:00*%
%TF.ProjectId,PSU to buck,50535520-746f-4206-9275-636b2e6b6963,rev?*%
%TF.SameCoordinates,Original*%
%TF.FileFunction,Copper,L2,Bot*%
%TF.FilePolarity,Positive*%
%FSLAX46Y46*%
G04 Gerber Fmt 4.6, Leading zero omitted, Abs format (unit mm)*
G04 Created by KiCad (PCBNEW 9.0.2) date 2025-08-22 13:53:24*
%MOMM*%
%LPD*%
G01*
G04 APERTURE LIST*
G04 Aperture macros list*
%AMRoundRect*
0 Rectangle with rounded corners*
0 $1 Rounding radius*
0 $2 $3 $4 $5 $6 $7 $8 $9 X,Y pos of 4 corners*
0 Add a 4 corners polygon primitive as box body*
4,1,4,$2,$3,$4,$5,$6,$7,$8,$9,$2,$3,0*
0 Add four circle primitives for the rounded corners*
1,1,$1+$1,$2,$3*
1,1,$1+$1,$4,$5*
1,1,$1+$1,$6,$7*
1,1,$1+$1,$8,$9*
0 Add four rect primitives between the rounded corners*
20,1,$1+$1,$2,$3,$4,$5,0*
20,1,$1+$1,$4,$5,$6,$7,0*
20,1,$1+$1,$6,$7,$8,$9,0*
20,1,$1+$1,$8,$9,$2,$3,0*%
G04 Aperture macros list end*
%TA.AperFunction,ComponentPad*%
%ADD10RoundRect,1.800000X1.800000X1.800000X-1.800000X1.800000X-1.800000X-1.800000X1.800000X-1.800000X0*%
%TD*%
%TA.AperFunction,ComponentPad*%
%ADD11C,7.200000*%
%TD*%
%TA.AperFunction,ComponentPad*%
%ADD12R,1.600000X2.400000*%
%TD*%
%TA.AperFunction,ComponentPad*%
%ADD13RoundRect,0.250001X-0.949999X-0.949999X0.949999X-0.949999X0.949999X0.949999X-0.949999X0.949999X0*%
%TD*%
%TA.AperFunction,ComponentPad*%
%ADD14C,2.400000*%
%TD*%
%TA.AperFunction,Conductor*%
%ADD15C,4.000000*%
%TD*%
G04 APERTURE END LIST*
D10*
%TO.P,J1,1,Pin_1*%
%TO.N,+12V*%
X82550000Y-82550000D03*
D11*
%TO.P,J1,2,Pin_2*%
%TO.N,GND*%
X71650002Y-82550000D03*
D12*
%TO.P,J1,MP*%
%TO.N,N/C*%
X86550000Y-91950000D03*
X67650000Y-91950000D03*
%TD*%
D13*
%TO.P,J3,1,Pin_1*%
%TO.N,+12V*%
X58420000Y-50800000D03*
D14*
%TO.P,J3,2,Pin_2*%
%TO.N,GND*%
X63500000Y-50800000D03*
%TD*%
D13*
%TO.P,J6,1,Pin_1*%
%TO.N,+12V*%
X115570000Y-50800000D03*
D14*
%TO.P,J6,2,Pin_2*%
%TO.N,GND*%
X120650000Y-50800000D03*
%TD*%
D13*
%TO.P,J5,1,Pin_1*%
%TO.N,+12V*%
X96520000Y-50800000D03*
D14*
%TO.P,J5,2,Pin_2*%
%TO.N,GND*%
X101600000Y-50800000D03*
%TD*%
D13*
%TO.P,J2,1,Pin_1*%
%TO.N,+12V*%
X39370000Y-50800000D03*
D14*
%TO.P,J2,2,Pin_2*%
%TO.N,GND*%
X44450000Y-50800000D03*
%TD*%
D13*
%TO.P,J4,1,Pin_1*%
%TO.N,+12V*%
X77470000Y-50800000D03*
D14*
%TO.P,J4,2,Pin_2*%
%TO.N,GND*%
X82550000Y-50800000D03*
%TD*%
D15*
%TO.N,GND*%
X69850000Y-101600000D02*
X71650002Y-99799998D01*
X57150000Y-63500000D02*
X44450000Y-63500000D01*
X38100000Y-101600000D02*
X69850000Y-101600000D01*
X44450000Y-57150000D02*
X38100000Y-63500000D01*
X69850000Y-63500000D02*
X63500000Y-69850000D01*
X63500000Y-69850000D02*
X63500000Y-74399998D01*
X63500000Y-88900000D02*
X69850000Y-82550000D01*
X71650002Y-99799998D02*
X71650002Y-82550000D01*
X44450000Y-95250000D02*
X63500000Y-95250000D01*
X101600000Y-50800000D02*
X101600000Y-63500000D01*
X88900000Y-69850000D02*
X76200000Y-69850000D01*
X120650000Y-101600000D02*
X82550000Y-101600000D01*
X38100000Y-63500000D02*
X38100000Y-101600000D01*
X63500000Y-57150000D02*
X57150000Y-63500000D01*
X63500000Y-74399998D02*
X71650002Y-82550000D01*
X82550000Y-101600000D02*
X71650002Y-90700002D01*
X44450000Y-63500000D02*
X44450000Y-95250000D01*
X82550000Y-50800000D02*
X82550000Y-63500000D01*
X44450000Y-50800000D02*
X44450000Y-57150000D01*
X76200000Y-69850000D02*
X71650002Y-74399998D01*
X71650002Y-90700002D02*
X71650002Y-82550000D01*
X63500000Y-95250000D02*
X63500000Y-88900000D01*
X69850000Y-82550000D02*
X71650002Y-82550000D01*
X63500000Y-50800000D02*
X63500000Y-57150000D01*
X120650000Y-50800000D02*
X120650000Y-101600000D01*
X82550000Y-63500000D02*
X69850000Y-63500000D01*
X95250000Y-63500000D02*
X88900000Y-69850000D01*
X101600000Y-63500000D02*
X95250000Y-63500000D01*
X71650002Y-74399998D02*
X71650002Y-82550000D01*
%TD*%
%TA.AperFunction,Conductor*%
%TO.N,GND*%
G36*
X126442539Y-43700185D02*
G01*
X126488294Y-43752989D01*
X126499500Y-43804500D01*
X126499500Y-107325500D01*
X126479815Y-107392539D01*
X126427011Y-107438294D01*
X126375500Y-107449500D01*
X32374500Y-107449500D01*
X32307461Y-107429815D01*
X32261706Y-107377011D01*
X32250500Y-107325500D01*
X32250500Y-90702135D01*
X66349500Y-90702135D01*
X66349500Y-93197870D01*
X66349501Y-93197876D01*
X66355908Y-93257483D01*
X66406202Y-93392328D01*
X66406206Y-93392335D01*
X66492452Y-93507544D01*
X66492455Y-93507547D01*
X66607664Y-93593793D01*
X66607671Y-93593797D01*
X66742517Y-93644091D01*
X66742516Y-93644091D01*
X66749444Y-93644835D01*
X66802127Y-93650500D01*
X68497872Y-93650499D01*
X68557483Y-93644091D01*
X68692331Y-93593796D01*
X68807546Y-93507546D01*
X68893796Y-93392331D01*
X68944091Y-93257483D01*
X68950500Y-93197873D01*
X68950499Y-90702135D01*
X85249500Y-90702135D01*
X85249500Y-93197870D01*
X85249501Y-93197876D01*
X85255908Y-93257483D01*
X85306202Y-93392328D01*
X85306206Y-93392335D01*
X85392452Y-93507544D01*
X85392455Y-93507547D01*
X85507664Y-93593793D01*
X85507671Y-93593797D01*
X85642517Y-93644091D01*
X85642516Y-93644091D01*
X85649444Y-93644835D01*
X85702127Y-93650500D01*
X87397872Y-93650499D01*
X87457483Y-93644091D01*
X87592331Y-93593796D01*
X87707546Y-93507546D01*
X87793796Y-93392331D01*
X87844091Y-93257483D01*
X87850500Y-93197873D01*
X87850499Y-90702128D01*
X87844091Y-90642517D01*
X87793796Y-90507669D01*
X87793795Y-90507668D01*
X87793793Y-90507664D01*
X87707547Y-90392455D01*
X87707544Y-90392452D01*
X87592335Y-90306206D01*
X87592328Y-90306202D01*
X87457482Y-90255908D01*
X87457483Y-90255908D01*
X87397883Y-90249501D01*
X87397881Y-90249500D01*
X87397873Y-90249500D01*
X87397864Y-90249500D01*
X85702129Y-90249500D01*
X85702123Y-90249501D01*
X85642516Y-90255908D01*
X85507671Y-90306202D01*
X85507664Y-90306206D01*
X85392455Y-90392452D01*
X85392452Y-90392455D01*
X85306206Y-90507664D01*
X85306202Y-90507671D01*
X85255908Y-90642517D01*
X85249501Y-90702116D01*
X85249501Y-90702123D01*
X85249500Y-90702135D01*
X68950499Y-90702135D01*
X68950499Y-90702128D01*
X68944091Y-90642517D01*
X68893796Y-90507669D01*
X68893795Y-90507668D01*
X68893793Y-90507664D01*
X68807547Y-90392455D01*
X68807544Y-90392452D01*
X68692335Y-90306206D01*
X68692328Y-90306202D01*
X68557482Y-90255908D01*
X68557483Y-90255908D01*
X68497883Y-90249501D01*
X68497881Y-90249500D01*
X68497873Y-90249500D01*
X68497864Y-90249500D01*
X66802129Y-90249500D01*
X66802123Y-90249501D01*
X66742516Y-90255908D01*
X66607671Y-90306202D01*
X66607664Y-90306206D01*
X66492455Y-90392452D01*
X66492452Y-90392455D01*
X66406206Y-90507664D01*
X66406202Y-90507671D01*
X66355908Y-90642517D01*
X66349501Y-90702116D01*
X66349501Y-90702123D01*
X66349500Y-90702135D01*
X32250500Y-90702135D01*
X32250500Y-82348583D01*
X67550002Y-82348583D01*
X67550002Y-82751416D01*
X67589486Y-83152320D01*
X67668071Y-83547399D01*
X67668074Y-83547410D01*
X67785016Y-83932919D01*
X67939177Y-84305092D01*
X67939179Y-84305097D01*
X68129066Y-84660351D01*
X68129077Y-84660369D01*
X68352873Y-84995304D01*
X68352883Y-84995318D01*
X68577469Y-85268977D01*
X68577470Y-85268978D01*
X70141402Y-83705046D01*
X70218441Y-83805445D01*
X70394557Y-83981561D01*
X70494954Y-84058599D01*
X68931022Y-85622530D01*
X68931023Y-85622531D01*
X69204683Y-85847118D01*
X69204697Y-85847128D01*
X69539632Y-86070924D01*
X69539650Y-86070935D01*
X69894904Y-86260822D01*
X69894909Y-86260824D01*
X70267082Y-86414985D01*
X70652591Y-86531927D01*
X70652602Y-86531930D01*
X71047681Y-86610515D01*
X71448585Y-86650000D01*
X71851419Y-86650000D01*
X72252322Y-86610515D01*
X72647401Y-86531930D01*
X72647412Y-86531927D01*
X73032921Y-86414985D01*
X73405094Y-86260824D01*
X73405099Y-86260822D01*
X73760353Y-86070935D01*
X73760371Y-86070924D01*
X74095306Y-85847128D01*
X74095320Y-85847118D01*
X74368980Y-85622530D01*
X72805048Y-84058599D01*
X72905447Y-83981561D01*
X73081563Y-83805445D01*
X73158601Y-83705046D01*
X74722532Y-85268978D01*
X74947120Y-84995318D01*
X74947130Y-84995304D01*
X75170926Y-84660369D01*
X75170937Y-84660351D01*
X75360824Y-84305097D01*
X75360826Y-84305092D01*
X75514987Y-83932919D01*
X75631929Y-83547410D01*
X75631932Y-83547399D01*
X75710517Y-83152320D01*
X75750002Y-82751416D01*
X75750002Y-82348583D01*
X75710517Y-81947679D01*
X75631932Y-81552600D01*
X75631929Y-81552589D01*
X75514987Y-81167080D01*
X75360826Y-80794907D01*
X75360824Y-80794902D01*
X75326729Y-80731114D01*
X75296570Y-80674690D01*
X78449500Y-80674690D01*
X78449500Y-84425310D01*
X78464287Y-84650918D01*
X78464288Y-84650930D01*
X78523118Y-84946683D01*
X78523122Y-84946698D01*
X78620053Y-85232247D01*
X78620062Y-85232268D01*
X78753431Y-85502713D01*
X78753435Y-85502720D01*
X78920973Y-85753459D01*
X79119810Y-85980189D01*
X79346540Y-86179026D01*
X79597279Y-86346564D01*
X79597286Y-86346568D01*
X79867731Y-86479937D01*
X79867736Y-86479939D01*
X79867748Y-86479945D01*
X80153309Y-86576880D01*
X80322402Y-86610515D01*
X80449069Y-86635711D01*
X80449070Y-86635711D01*
X80449080Y-86635713D01*
X80674690Y-86650500D01*
X80674701Y-86650500D01*
X84425299Y-86650500D01*
X84425310Y-86650500D01*
X84650920Y-86635713D01*
X84946691Y-86576880D01*
X85232252Y-86479945D01*
X85502718Y-86346566D01*
X85753461Y-86179025D01*
X85980189Y-85980189D01*
X86179025Y-85753461D01*
X86346566Y-85502718D01*
X86479945Y-85232252D01*
X86576880Y-84946691D01*
X86635713Y-84650920D01*
X86650500Y-84425310D01*
X86650500Y-80674690D01*
X86635713Y-80449080D01*
X86576880Y-80153309D01*
X86479945Y-79867748D01*
X86461833Y-79831021D01*
X86346568Y-79597286D01*
X86346564Y-79597279D01*
X86179026Y-79346540D01*
X85980189Y-79119810D01*
X85753459Y-78920973D01*
X85502720Y-78753435D01*
X85502713Y-78753431D01*
X85232268Y-78620062D01*
X85232247Y-78620053D01*
X84946698Y-78523122D01*
X84946692Y-78523120D01*
X84946691Y-78523120D01*
X84946689Y-78523119D01*
X84946683Y-78523118D01*
X84650930Y-78464288D01*
X84650921Y-78464287D01*
X84650920Y-78464287D01*
X84425310Y-78449500D01*
X80674690Y-78449500D01*
X80449080Y-78464287D01*
X80449079Y-78464287D01*
X80449069Y-78464288D01*
X80153316Y-78523118D01*
X80153301Y-78523122D01*
X79867752Y-78620053D01*
X79867731Y-78620062D01*
X79597286Y-78753431D01*
X79597279Y-78753435D01*
X79346540Y-78920973D01*
X79119810Y-79119810D01*
X78920973Y-79346540D01*
X78753435Y-79597279D01*
X78753431Y-79597286D01*
X78620062Y-79867731D01*
X78620053Y-79867752D01*
X78523122Y-80153301D01*
X78523118Y-80153316D01*
X78464288Y-80449069D01*
X78464287Y-80449079D01*
X78464287Y-80449080D01*
X78449500Y-80674690D01*
X75296570Y-80674690D01*
X75170937Y-80439648D01*
X75170926Y-80439630D01*
X74947130Y-80104695D01*
X74947120Y-80104681D01*
X74722533Y-79831021D01*
X74722532Y-79831020D01*
X73158600Y-81394952D01*
X73081563Y-81294555D01*
X72905447Y-81118439D01*
X72805047Y-81041399D01*
X74368980Y-79477468D01*
X74368979Y-79477467D01*
X74095320Y-79252881D01*
X74095306Y-79252871D01*
X73760371Y-79029075D01*
X73760353Y-79029064D01*
X73405099Y-78839177D01*
X73405094Y-78839175D01*
X73032921Y-78685014D01*
X72647412Y-78568072D01*
X72647401Y-78568069D01*
X72252322Y-78489484D01*
X71851419Y-78450000D01*
X71448585Y-78450000D01*
X71047681Y-78489484D01*
X70652602Y-78568069D01*
X70652591Y-78568072D01*
X70267082Y-78685014D01*
X69894909Y-78839175D01*
X69894904Y-78839177D01*
X69539650Y-79029064D01*
X69539632Y-79029075D01*
X69204683Y-79252880D01*
X68931023Y-79477467D01*
X68931022Y-79477468D01*
X70494955Y-81041400D01*
X70394557Y-81118439D01*
X70218441Y-81294555D01*
X70141402Y-81394953D01*
X68577470Y-79831020D01*
X68577469Y-79831021D01*
X68352882Y-80104681D01*
X68129077Y-80439630D01*
X68129066Y-80439648D01*
X67939179Y-80794902D01*
X67939177Y-80794907D01*
X67785016Y-81167080D01*
X67668074Y-81552589D01*
X67668071Y-81552600D01*
X67589486Y-81947679D01*
X67550002Y-82348583D01*
X32250500Y-82348583D01*
X32250500Y-49799984D01*
X37669500Y-49799984D01*
X37669500Y-51800015D01*
X37680000Y-51902795D01*
X37680001Y-51902796D01*
X37735186Y-52069335D01*
X37735187Y-52069337D01*
X37827286Y-52218651D01*
X37827289Y-52218655D01*
X37951344Y-52342710D01*
X37951348Y-52342713D01*
X38100662Y-52434812D01*
X38100664Y-52434813D01*
X38100666Y-52434814D01*
X38267203Y-52489999D01*
X38369992Y-52500500D01*
X38369997Y-52500500D01*
X40370003Y-52500500D01*
X40370008Y-52500500D01*
X40472797Y-52489999D01*
X40639334Y-52434814D01*
X40788655Y-52342711D01*
X40912711Y-52218655D01*
X41004814Y-52069334D01*
X41059999Y-51902797D01*
X41070500Y-51800008D01*
X41070500Y-50688575D01*
X42750000Y-50688575D01*
X42750000Y-50911424D01*
X42779085Y-51132354D01*
X42779088Y-51132367D01*
X42836763Y-51347618D01*
X42922045Y-51553502D01*
X42922054Y-51553520D01*
X43033464Y-51746491D01*
X43033473Y-51746504D01*
X43084040Y-51812403D01*
X43084043Y-51812403D01*
X43734152Y-51162293D01*
X43741049Y-51178942D01*
X43828599Y-51309970D01*
X43940030Y-51421401D01*
X44071058Y-51508951D01*
X44087705Y-51515846D01*
X43437595Y-52165955D01*
X43437595Y-52165956D01*
X43503507Y-52216533D01*
X43696485Y-52327949D01*
X43696497Y-52327954D01*
X43902381Y-52413236D01*
X44117632Y-52470911D01*
X44117645Y-52470914D01*
X44338575Y-52500000D01*
X44561425Y-52500000D01*
X44782354Y-52470914D01*
X44782367Y-52470911D01*
X44997618Y-52413236D01*
X45203502Y-52327954D01*
X45203514Y-52327949D01*
X45396498Y-52216530D01*
X45462403Y-52165957D01*
X45462404Y-52165956D01*
X44812294Y-51515846D01*
X44828942Y-51508951D01*
X44959970Y-51421401D01*
X45071401Y-51309970D01*
X45158951Y-51178942D01*
X45165846Y-51162294D01*
X45815956Y-51812404D01*
X45815957Y-51812403D01*
X45866530Y-51746498D01*
X45977949Y-51553514D01*
X45977954Y-51553502D01*
X46063236Y-51347618D01*
X46120911Y-51132367D01*
X46120914Y-51132354D01*
X46150000Y-50911424D01*
X46150000Y-50688575D01*
X46120914Y-50467645D01*
X46120911Y-50467632D01*
X46063236Y-50252381D01*
X45977954Y-50046497D01*
X45977949Y-50046485D01*
X45869610Y-49858835D01*
X45866533Y-49853506D01*
X45825463Y-49799984D01*
X56719500Y-49799984D01*
X56719500Y-51800015D01*
X56730000Y-51902795D01*
X56730001Y-51902796D01*
X56785186Y-52069335D01*
X56785187Y-52069337D01*
X56877286Y-52218651D01*
X56877289Y-52218655D01*
X57001344Y-52342710D01*
X57001348Y-52342713D01*
X57150662Y-52434812D01*
X57150664Y-52434813D01*
X57150666Y-52434814D01*
X57317203Y-52489999D01*
X57419992Y-52500500D01*
X57419997Y-52500500D01*
X59420003Y-52500500D01*
X59420008Y-52500500D01*
X59522797Y-52489999D01*
X59689334Y-52434814D01*
X59838655Y-52342711D01*
X59962711Y-52218655D01*
X60054814Y-52069334D01*
X60109999Y-51902797D01*
X60120500Y-51800008D01*
X60120500Y-50688575D01*
X61800000Y-50688575D01*
X61800000Y-50911424D01*
X61829085Y-51132354D01*
X61829088Y-51132367D01*
X61886763Y-51347618D01*
X61972045Y-51553502D01*
X61972054Y-51553520D01*
X62083464Y-51746491D01*
X62083473Y-51746504D01*
X62134040Y-51812403D01*
X62134043Y-51812403D01*
X62784152Y-51162293D01*
X62791049Y-51178942D01*
X62878599Y-51309970D01*
X62990030Y-51421401D01*
X63121058Y-51508951D01*
X63137705Y-51515846D01*
X62487595Y-52165955D01*
X62487595Y-52165956D01*
X62553507Y-52216533D01*
X62746485Y-52327949D01*
X62746497Y-52327954D01*
X62952381Y-52413236D01*
X63167632Y-52470911D01*
X63167645Y-52470914D01*
X63388575Y-52500000D01*
X63611425Y-52500000D01*
X63832354Y-52470914D01*
X63832367Y-52470911D01*
X64047618Y-52413236D01*
X64253502Y-52327954D01*
X64253514Y-52327949D01*
X64446498Y-52216530D01*
X64512403Y-52165957D01*
X64512404Y-52165956D01*
X63862294Y-51515846D01*
X63878942Y-51508951D01*
X64009970Y-51421401D01*
X64121401Y-51309970D01*
X64208951Y-51178942D01*
X64215846Y-51162294D01*
X64865956Y-51812404D01*
X64865957Y-51812403D01*
X64916530Y-51746498D01*
X65027949Y-51553514D01*
X65027954Y-51553502D01*
X65113236Y-51347618D01*
X65170911Y-51132367D01*
X65170914Y-51132354D01*
X65200000Y-50911424D01*
X65200000Y-50688575D01*
X65170914Y-50467645D01*
X65170911Y-50467632D01*
X65113236Y-50252381D01*
X65027954Y-50046497D01*
X65027949Y-50046485D01*
X64919610Y-49858835D01*
X64916533Y-49853506D01*
X64875463Y-49799984D01*
X75769500Y-49799984D01*
X75769500Y-51800015D01*
X75780000Y-51902795D01*
X75780001Y-51902796D01*
X75835186Y-52069335D01*
X75835187Y-52069337D01*
X75927286Y-52218651D01*
X75927289Y-52218655D01*
X76051344Y-52342710D01*
X76051348Y-52342713D01*
X76200662Y-52434812D01*
X76200664Y-52434813D01*
X76200666Y-52434814D01*
X76367203Y-52489999D01*
X76469992Y-52500500D01*
X76469997Y-52500500D01*
X78470003Y-52500500D01*
X78470008Y-52500500D01*
X78572797Y-52489999D01*
X78739334Y-52434814D01*
X78888655Y-52342711D01*
X79012711Y-52218655D01*
X79104814Y-52069334D01*
X79159999Y-51902797D01*
X79170500Y-51800008D01*
X79170500Y-50688575D01*
X80850000Y-50688575D01*
X80850000Y-50911424D01*
X80879085Y-51132354D01*
X80879088Y-51132367D01*
X80936763Y-51347618D01*
X81022045Y-51553502D01*
X81022054Y-51553520D01*
X81133464Y-51746491D01*
X81133473Y-51746504D01*
X81184040Y-51812403D01*
X81184043Y-51812403D01*
X81834152Y-51162293D01*
X81841049Y-51178942D01*
X81928599Y-51309970D01*
X82040030Y-51421401D01*
X82171058Y-51508951D01*
X82187705Y-51515846D01*
X81537595Y-52165955D01*
X81537595Y-52165956D01*
X81603507Y-52216533D01*
X81796485Y-52327949D01*
X81796497Y-52327954D01*
X82002381Y-52413236D01*
X82217632Y-52470911D01*
X82217645Y-52470914D01*
X82438575Y-52500000D01*
X82661425Y-52500000D01*
X82882354Y-52470914D01*
X82882367Y-52470911D01*
X83097618Y-52413236D01*
X83303502Y-52327954D01*
X83303514Y-52327949D01*
X83496498Y-52216530D01*
X83562403Y-52165957D01*
X83562404Y-52165956D01*
X82912294Y-51515846D01*
X82928942Y-51508951D01*
X83059970Y-51421401D01*
X83171401Y-51309970D01*
X83258951Y-51178942D01*
X83265846Y-51162294D01*
X83915956Y-51812404D01*
X83915957Y-51812403D01*
X83966530Y-51746498D01*
X84077949Y-51553514D01*
X84077954Y-51553502D01*
X84163236Y-51347618D01*
X84220911Y-51132367D01*
X84220914Y-51132354D01*
X84250000Y-50911424D01*
X84250000Y-50688575D01*
X84220914Y-50467645D01*
X84220911Y-50467632D01*
X84163236Y-50252381D01*
X84077954Y-50046497D01*
X84077949Y-50046485D01*
X83969610Y-49858835D01*
X83966533Y-49853506D01*
X83925463Y-49799984D01*
X94819500Y-49799984D01*
X94819500Y-51800015D01*
X94830000Y-51902795D01*
X94830001Y-51902796D01*
X94885186Y-52069335D01*
X94885187Y-52069337D01*
X94977286Y-52218651D01*
X94977289Y-52218655D01*
X95101344Y-52342710D01*
X95101348Y-52342713D01*
X95250662Y-52434812D01*
X95250664Y-52434813D01*
X95250666Y-52434814D01*
X95417203Y-52489999D01*
X95519992Y-52500500D01*
X95519997Y-52500500D01*
X97520003Y-52500500D01*
X97520008Y-52500500D01*
X97622797Y-52489999D01*
X97789334Y-52434814D01*
X97938655Y-52342711D01*
X98062711Y-52218655D01*
X98154814Y-52069334D01*
X98209999Y-51902797D01*
X98220500Y-51800008D01*
X98220500Y-50688575D01*
X99900000Y-50688575D01*
X99900000Y-50911424D01*
X99929085Y-51132354D01*
X99929088Y-51132367D01*
X99986763Y-51347618D01*
X100072045Y-51553502D01*
X100072054Y-51553520D01*
X100183464Y-51746491D01*
X100183473Y-51746504D01*
X100234040Y-51812403D01*
X100234043Y-51812403D01*
X100884152Y-51162293D01*
X100891049Y-51178942D01*
X100978599Y-51309970D01*
X101090030Y-51421401D01*
X101221058Y-51508951D01*
X101237705Y-51515846D01*
X100587595Y-52165955D01*
X100587595Y-52165956D01*
X100653507Y-52216533D01*
X100846485Y-52327949D01*
X100846497Y-52327954D01*
X101052381Y-52413236D01*
X101267632Y-52470911D01*
X101267645Y-52470914D01*
X101488575Y-52500000D01*
X101711425Y-52500000D01*
X101932354Y-52470914D01*
X101932367Y-52470911D01*
X102147618Y-52413236D01*
X102353502Y-52327954D01*
X102353514Y-52327949D01*
X102546498Y-52216530D01*
X102612403Y-52165957D01*
X102612404Y-52165956D01*
X101962294Y-51515846D01*
X101978942Y-51508951D01*
X102109970Y-51421401D01*
X102221401Y-51309970D01*
X102308951Y-51178942D01*
X102315846Y-51162294D01*
X102965956Y-51812404D01*
X102965957Y-51812403D01*
X103016530Y-51746498D01*
X103127949Y-51553514D01*
X103127954Y-51553502D01*
X103213236Y-51347618D01*
X103270911Y-51132367D01*
X103270914Y-51132354D01*
X103300000Y-50911424D01*
X103300000Y-50688575D01*
X103270914Y-50467645D01*
X103270911Y-50467632D01*
X103213236Y-50252381D01*
X103127954Y-50046497D01*
X103127949Y-50046485D01*
X103019610Y-49858835D01*
X103016533Y-49853506D01*
X102975463Y-49799984D01*
X113869500Y-49799984D01*
X113869500Y-51800015D01*
X113880000Y-51902795D01*
X113880001Y-51902796D01*
X113935186Y-52069335D01*
X113935187Y-52069337D01*
X114027286Y-52218651D01*
X114027289Y-52218655D01*
X114151344Y-52342710D01*
X114151348Y-52342713D01*
X114300662Y-52434812D01*
X114300664Y-52434813D01*
X114300666Y-52434814D01*
X114467203Y-52489999D01*
X114569992Y-52500500D01*
X114569997Y-52500500D01*
X116570003Y-52500500D01*
X116570008Y-52500500D01*
X116672797Y-52489999D01*
X116839334Y-52434814D01*
X116988655Y-52342711D01*
X117112711Y-52218655D01*
X117204814Y-52069334D01*
X117259999Y-51902797D01*
X117270500Y-51800008D01*
X117270500Y-50688575D01*
X118950000Y-50688575D01*
X118950000Y-50911424D01*
X118979085Y-51132354D01*
X118979088Y-51132367D01*
X119036763Y-51347618D01*
X119122045Y-51553502D01*
X119122054Y-51553520D01*
X119233464Y-51746491D01*
X119233473Y-51746504D01*
X119284040Y-51812403D01*
X119284043Y-51812403D01*
X119934152Y-51162293D01*
X119941049Y-51178942D01*
X120028599Y-51309970D01*
X120140030Y-51421401D01*
X120271058Y-51508951D01*
X120287705Y-51515846D01*
X119637595Y-52165955D01*
X119637595Y-52165956D01*
X119703507Y-52216533D01*
X119896485Y-52327949D01*
X119896497Y-52327954D01*
X120102381Y-52413236D01*
X120317632Y-52470911D01*
X120317645Y-52470914D01*
X120538575Y-52500000D01*
X120761425Y-52500000D01*
X120982354Y-52470914D01*
X120982367Y-52470911D01*
X121197618Y-52413236D01*
X121403502Y-52327954D01*
X121403514Y-52327949D01*
X121596498Y-52216530D01*
X121662403Y-52165957D01*
X121662404Y-52165956D01*
X121012294Y-51515846D01*
X121028942Y-51508951D01*
X121159970Y-51421401D01*
X121271401Y-51309970D01*
X121358951Y-51178942D01*
X121365846Y-51162294D01*
X122015956Y-51812404D01*
X122015957Y-51812403D01*
X122066530Y-51746498D01*
X122177949Y-51553514D01*
X122177954Y-51553502D01*
X122263236Y-51347618D01*
X122320911Y-51132367D01*
X122320914Y-51132354D01*
X122350000Y-50911424D01*
X122350000Y-50688575D01*
X122320914Y-50467645D01*
X122320911Y-50467632D01*
X122263236Y-50252381D01*
X122177954Y-50046497D01*
X122177949Y-50046485D01*
X122066533Y-49853507D01*
X122015956Y-49787595D01*
X122015955Y-49787595D01*
X121365846Y-50437704D01*
X121358951Y-50421058D01*
X121271401Y-50290030D01*
X121159970Y-50178599D01*
X121028942Y-50091049D01*
X121012293Y-50084152D01*
X121662403Y-49434043D01*
X121662403Y-49434040D01*
X121596504Y-49383473D01*
X121596491Y-49383464D01*
X121403520Y-49272054D01*
X121403502Y-49272045D01*
X121197618Y-49186763D01*
X120982367Y-49129088D01*
X120982354Y-49129085D01*
X120761425Y-49100000D01*
X120538575Y-49100000D01*
X120317645Y-49129085D01*
X120317632Y-49129088D01*
X120102381Y-49186763D01*
X119896497Y-49272045D01*
X119896479Y-49272054D01*
X119703511Y-49383462D01*
X119637595Y-49434042D01*
X120287706Y-50084152D01*
X120271058Y-50091049D01*
X120140030Y-50178599D01*
X120028599Y-50290030D01*
X119941049Y-50421058D01*
X119934153Y-50437706D01*
X119284042Y-49787595D01*
X119233462Y-49853511D01*
X119122054Y-50046479D01*
X119122045Y-50046497D01*
X119036763Y-50252381D01*
X118979088Y-50467632D01*
X118979085Y-50467645D01*
X118950000Y-50688575D01*
X117270500Y-50688575D01*
X117270500Y-49799992D01*
X117259999Y-49697203D01*
X117204814Y-49530666D01*
X117112711Y-49381345D01*
X116988655Y-49257289D01*
X116988651Y-49257286D01*
X116839337Y-49165187D01*
X116839335Y-49165186D01*
X116756065Y-49137593D01*
X116672797Y-49110001D01*
X116672795Y-49110000D01*
X116570015Y-49099500D01*
X116570008Y-49099500D01*
X114569992Y-49099500D01*
X114569984Y-49099500D01*
X114467204Y-49110000D01*
X114467203Y-49110001D01*
X114300664Y-49165186D01*
X114300662Y-49165187D01*
X114151348Y-49257286D01*
X114151344Y-49257289D01*
X114027289Y-49381344D01*
X114027286Y-49381348D01*
X113935187Y-49530662D01*
X113935186Y-49530664D01*
X113880001Y-49697203D01*
X113880000Y-49697204D01*
X113869500Y-49799984D01*
X102975463Y-49799984D01*
X102965956Y-49787595D01*
X102965955Y-49787595D01*
X102315846Y-50437704D01*
X102308951Y-50421058D01*
X102221401Y-50290030D01*
X102109970Y-50178599D01*
X101978942Y-50091049D01*
X101962293Y-50084152D01*
X102612403Y-49434043D01*
X102612403Y-49434040D01*
X102546504Y-49383473D01*
X102546491Y-49383464D01*
X102353520Y-49272054D01*
X102353502Y-49272045D01*
X102147618Y-49186763D01*
X101932367Y-49129088D01*
X101932354Y-49129085D01*
X101711425Y-49100000D01*
X101488575Y-49100000D01*
X101267645Y-49129085D01*
X101267632Y-49129088D01*
X101052381Y-49186763D01*
X100846497Y-49272045D01*
X100846479Y-49272054D01*
X100653511Y-49383462D01*
X100587595Y-49434042D01*
X101237706Y-50084152D01*
X101221058Y-50091049D01*
X101090030Y-50178599D01*
X100978599Y-50290030D01*
X100891049Y-50421058D01*
X100884153Y-50437706D01*
X100234042Y-49787595D01*
X100183462Y-49853511D01*
X100072054Y-50046479D01*
X100072045Y-50046497D01*
X99986763Y-50252381D01*
X99929088Y-50467632D01*
X99929085Y-50467645D01*
X99900000Y-50688575D01*
X98220500Y-50688575D01*
X98220500Y-49799992D01*
X98209999Y-49697203D01*
X98154814Y-49530666D01*
X98062711Y-49381345D01*
X97938655Y-49257289D01*
X97938651Y-49257286D01*
X97789337Y-49165187D01*
X97789335Y-49165186D01*
X97706065Y-49137593D01*
X97622797Y-49110001D01*
X97622795Y-49110000D01*
X97520015Y-49099500D01*
X97520008Y-49099500D01*
X95519992Y-49099500D01*
X95519984Y-49099500D01*
X95417204Y-49110000D01*
X95417203Y-49110001D01*
X95250664Y-49165186D01*
X95250662Y-49165187D01*
X95101348Y-49257286D01*
X95101344Y-49257289D01*
X94977289Y-49381344D01*
X94977286Y-49381348D01*
X94885187Y-49530662D01*
X94885186Y-49530664D01*
X94830001Y-49697203D01*
X94830000Y-49697204D01*
X94819500Y-49799984D01*
X83925463Y-49799984D01*
X83915956Y-49787595D01*
X83915955Y-49787595D01*
X83265846Y-50437704D01*
X83258951Y-50421058D01*
X83171401Y-50290030D01*
X83059970Y-50178599D01*
X82928942Y-50091049D01*
X82912293Y-50084152D01*
X83562403Y-49434043D01*
X83562403Y-49434040D01*
X83496504Y-49383473D01*
X83496491Y-49383464D01*
X83303520Y-49272054D01*
X83303502Y-49272045D01*
X83097618Y-49186763D01*
X82882367Y-49129088D01*
X82882354Y-49129085D01*
X82661425Y-49100000D01*
X82438575Y-49100000D01*
X82217645Y-49129085D01*
X82217632Y-49129088D01*
X82002381Y-49186763D01*
X81796497Y-49272045D01*
X81796479Y-49272054D01*
X81603511Y-49383462D01*
X81537595Y-49434042D01*
X82187706Y-50084152D01*
X82171058Y-50091049D01*
X82040030Y-50178599D01*
X81928599Y-50290030D01*
X81841049Y-50421058D01*
X81834153Y-50437706D01*
X81184042Y-49787595D01*
X81133462Y-49853511D01*
X81022054Y-50046479D01*
X81022045Y-50046497D01*
X80936763Y-50252381D01*
X80879088Y-50467632D01*
X80879085Y-50467645D01*
X80850000Y-50688575D01*
X79170500Y-50688575D01*
X79170500Y-49799992D01*
X79159999Y-49697203D01*
X79104814Y-49530666D01*
X79012711Y-49381345D01*
X78888655Y-49257289D01*
X78888651Y-49257286D01*
X78739337Y-49165187D01*
X78739335Y-49165186D01*
X78656065Y-49137593D01*
X78572797Y-49110001D01*
X78572795Y-49110000D01*
X78470015Y-49099500D01*
X78470008Y-49099500D01*
X76469992Y-49099500D01*
X76469984Y-49099500D01*
X76367204Y-49110000D01*
X76367203Y-49110001D01*
X76200664Y-49165186D01*
X76200662Y-49165187D01*
X76051348Y-49257286D01*
X76051344Y-49257289D01*
X75927289Y-49381344D01*
X75927286Y-49381348D01*
X75835187Y-49530662D01*
X75835186Y-49530664D01*
X75780001Y-49697203D01*
X75780000Y-49697204D01*
X75769500Y-49799984D01*
X64875463Y-49799984D01*
X64865956Y-49787595D01*
X64865955Y-49787595D01*
X64215846Y-50437704D01*
X64208951Y-50421058D01*
X64121401Y-50290030D01*
X64009970Y-50178599D01*
X63878942Y-50091049D01*
X63862293Y-50084152D01*
X64512403Y-49434043D01*
X64512403Y-49434040D01*
X64446504Y-49383473D01*
X64446491Y-49383464D01*
X64253520Y-49272054D01*
X64253502Y-49272045D01*
X64047618Y-49186763D01*
X63832367Y-49129088D01*
X63832354Y-49129085D01*
X63611425Y-49100000D01*
X63388575Y-49100000D01*
X63167645Y-49129085D01*
X63167632Y-49129088D01*
X62952381Y-49186763D01*
X62746497Y-49272045D01*
X62746479Y-49272054D01*
X62553511Y-49383462D01*
X62487595Y-49434042D01*
X63137706Y-50084152D01*
X63121058Y-50091049D01*
X62990030Y-50178599D01*
X62878599Y-50290030D01*
X62791049Y-50421058D01*
X62784153Y-50437706D01*
X62134042Y-49787595D01*
X62083462Y-49853511D01*
X61972054Y-50046479D01*
X61972045Y-50046497D01*
X61886763Y-50252381D01*
X61829088Y-50467632D01*
X61829085Y-50467645D01*
X61800000Y-50688575D01*
X60120500Y-50688575D01*
X60120500Y-49799992D01*
X60109999Y-49697203D01*
X60054814Y-49530666D01*
X59962711Y-49381345D01*
X59838655Y-49257289D01*
X59838651Y-49257286D01*
X59689337Y-49165187D01*
X59689335Y-49165186D01*
X59606065Y-49137593D01*
X59522797Y-49110001D01*
X59522795Y-49110000D01*
X59420015Y-49099500D01*
X59420008Y-49099500D01*
X57419992Y-49099500D01*
X57419984Y-49099500D01*
X57317204Y-49110000D01*
X57317203Y-49110001D01*
X57150664Y-49165186D01*
X57150662Y-49165187D01*
X57001348Y-49257286D01*
X57001344Y-49257289D01*
X56877289Y-49381344D01*
X56877286Y-49381348D01*
X56785187Y-49530662D01*
X56785186Y-49530664D01*
X56730001Y-49697203D01*
X56730000Y-49697204D01*
X56719500Y-49799984D01*
X45825463Y-49799984D01*
X45815956Y-49787595D01*
X45815955Y-49787595D01*
X45165846Y-50437704D01*
X45158951Y-50421058D01*
X45071401Y-50290030D01*
X44959970Y-50178599D01*
X44828942Y-50091049D01*
X44812293Y-50084152D01*
X45462403Y-49434043D01*
X45462403Y-49434040D01*
X45396504Y-49383473D01*
X45396491Y-49383464D01*
X45203520Y-49272054D01*
X45203502Y-49272045D01*
X44997618Y-49186763D01*
X44782367Y-49129088D01*
X44782354Y-49129085D01*
X44561425Y-49100000D01*
X44338575Y-49100000D01*
X44117645Y-49129085D01*
X44117632Y-49129088D01*
X43902381Y-49186763D01*
X43696497Y-49272045D01*
X43696479Y-49272054D01*
X43503511Y-49383462D01*
X43437595Y-49434042D01*
X44087706Y-50084152D01*
X44071058Y-50091049D01*
X43940030Y-50178599D01*
X43828599Y-50290030D01*
X43741049Y-50421058D01*
X43734153Y-50437706D01*
X43084042Y-49787595D01*
X43033462Y-49853511D01*
X42922054Y-50046479D01*
X42922045Y-50046497D01*
X42836763Y-50252381D01*
X42779088Y-50467632D01*
X42779085Y-50467645D01*
X42750000Y-50688575D01*
X41070500Y-50688575D01*
X41070500Y-49799992D01*
X41059999Y-49697203D01*
X41004814Y-49530666D01*
X40912711Y-49381345D01*
X40788655Y-49257289D01*
X40788651Y-49257286D01*
X40639337Y-49165187D01*
X40639335Y-49165186D01*
X40556065Y-49137593D01*
X40472797Y-49110001D01*
X40472795Y-49110000D01*
X40370015Y-49099500D01*
X40370008Y-49099500D01*
X38369992Y-49099500D01*
X38369984Y-49099500D01*
X38267204Y-49110000D01*
X38267203Y-49110001D01*
X38100664Y-49165186D01*
X38100662Y-49165187D01*
X37951348Y-49257286D01*
X37951344Y-49257289D01*
X37827289Y-49381344D01*
X37827286Y-49381348D01*
X37735187Y-49530662D01*
X37735186Y-49530664D01*
X37680001Y-49697203D01*
X37680000Y-49697204D01*
X37669500Y-49799984D01*
X32250500Y-49799984D01*
X32250500Y-43804500D01*
X32270185Y-43737461D01*
X32322989Y-43691706D01*
X32374500Y-43680500D01*
X126375500Y-43680500D01*
X126442539Y-43700185D01*
G37*
%TD.AperFunction*%
%TD*%
M02*
